<svg width="37" height="16" viewBox="0 0 37 16" fill="none" xmlns="http://www.w3.org/2000/svg">
<path d="M0 11.872V0.672H5.472C6.88 0.672 7.936 0.938667 8.64 1.472C9.35467 2.00533 9.712 2.70933 9.712 3.584C9.712 4.17067 9.568 4.68267 9.28 5.12C8.992 5.54667 8.59733 5.87733 8.096 6.112C7.59467 6.34667 7.01867 6.464 6.368 6.464L6.672 5.808C7.376 5.808 8 5.92533 8.544 6.16C9.088 6.384 9.50933 6.72 9.808 7.168C10.1173 7.616 10.272 8.16533 10.272 8.816C10.272 9.776 9.89333 10.528 9.136 11.072C8.37867 11.6053 7.264 11.872 5.792 11.872H0ZM2.576 9.92H5.6C6.272 9.92 6.77867 9.81333 7.12 9.6C7.472 9.376 7.648 9.024 7.648 8.544C7.648 8.07467 7.472 7.728 7.12 7.504C6.77867 7.26933 6.272 7.152 5.6 7.152H2.384V5.264H5.152C5.78133 5.264 6.26133 5.15733 6.592 4.944C6.93333 4.72 7.104 4.384 7.104 3.936C7.104 3.49867 6.93333 3.17333 6.592 2.96C6.26133 2.736 5.78133 2.624 5.152 2.624H2.576V9.92Z" fill="white"/>
<path d="M12.0584 11.872V0H14.5544V11.872H12.0584Z" fill="white"/>
<path d="M20.9669 12C20.0495 12 19.2335 11.808 18.5189 11.424C17.8149 11.04 17.2549 10.5173 16.8389 9.856C16.4335 9.184 16.2309 8.42133 16.2309 7.568C16.2309 6.704 16.4335 5.94133 16.8389 5.28C17.2549 4.608 17.8149 4.08533 18.5189 3.712C19.2335 3.328 20.0495 3.136 20.9669 3.136C21.8735 3.136 22.6842 3.328 23.3989 3.712C24.1135 4.08533 24.6735 4.60267 25.0789 5.264C25.4842 5.92533 25.6869 6.69333 25.6869 7.568C25.6869 8.42133 25.4842 9.184 25.0789 9.856C24.6735 10.5173 24.1135 11.04 23.3989 11.424C22.6842 11.808 21.8735 12 20.9669 12ZM20.9669 9.952C21.3829 9.952 21.7562 9.856 22.0869 9.664C22.4175 9.472 22.6789 9.2 22.8709 8.848C23.0629 8.48533 23.1589 8.05867 23.1589 7.568C23.1589 7.06667 23.0629 6.64 22.8709 6.288C22.6789 5.936 22.4175 5.664 22.0869 5.472C21.7562 5.28 21.3829 5.184 20.9669 5.184C20.5509 5.184 20.1775 5.28 19.8469 5.472C19.5162 5.664 19.2495 5.936 19.0469 6.288C18.8549 6.64 18.7589 7.06667 18.7589 7.568C18.7589 8.05867 18.8549 8.48533 19.0469 8.848C19.2495 9.2 19.5162 9.472 19.8469 9.664C20.1775 9.856 20.5509 9.952 20.9669 9.952Z" fill="white"/>
<path d="M31.4032 15.104C30.5926 15.104 29.8086 15.0027 29.0513 14.8C28.3046 14.608 27.6806 14.3147 27.1793 13.92L28.1712 12.128C28.5339 12.4267 28.9926 12.6613 29.5473 12.832C30.1126 13.0133 30.6672 13.104 31.2113 13.104C32.0966 13.104 32.7366 12.9067 33.1312 12.512C33.5366 12.1173 33.7393 11.5307 33.7393 10.752V9.456L33.8993 7.296L33.8672 5.12V3.264H36.2353V10.432C36.2353 12.032 35.8193 13.2107 34.9873 13.968C34.1553 14.7253 32.9606 15.104 31.4032 15.104ZM31.0193 11.456C30.2192 11.456 29.4939 11.2853 28.8433 10.944C28.2033 10.592 27.6859 10.1067 27.2913 9.488C26.9072 8.85867 26.7153 8.128 26.7153 7.296C26.7153 6.45333 26.9072 5.72267 27.2913 5.104C27.6859 4.47467 28.2033 3.98933 28.8433 3.648C29.4939 3.30667 30.2192 3.136 31.0193 3.136C31.7446 3.136 32.3846 3.28533 32.9393 3.584C33.4939 3.872 33.9259 4.32533 34.2353 4.944C34.5446 5.552 34.6992 6.336 34.6992 7.296C34.6992 8.24533 34.5446 9.02933 34.2353 9.648C33.9259 10.256 33.4939 10.7093 32.9393 11.008C32.3846 11.3067 31.7446 11.456 31.0193 11.456ZM31.5153 9.408C31.9526 9.408 32.3419 9.32267 32.6833 9.152C33.0246 8.97067 33.2912 8.72 33.4832 8.4C33.6753 8.08 33.7713 7.712 33.7713 7.296C33.7713 6.86933 33.6753 6.50133 33.4832 6.192C33.2912 5.872 33.0246 5.62667 32.6833 5.456C32.3419 5.27467 31.9526 5.184 31.5153 5.184C31.0779 5.184 30.6886 5.27467 30.3472 5.456C30.0059 5.62667 29.7339 5.872 29.5312 6.192C29.3393 6.50133 29.2432 6.86933 29.2432 7.296C29.2432 7.712 29.3393 8.08 29.5312 8.4C29.7339 8.72 30.0059 8.97067 30.3472 9.152C30.6886 9.32267 31.0779 9.408 31.5153 9.408Z" fill="white"/>
</svg>
